<mxfile host="app.diagrams.net" modified="2024-05-29T11:36:27.220Z" agent="Mozilla/5.0 (Windows NT 10.0; Win64; x64) AppleWebKit/537.36 (KHTML, like Gecko) Chrome/125.0.0.0 Safari/537.36 Edg/125.0.0.0" etag="N7w5LQAqSy_uWm6ElxRs" version="24.4.9" type="github">
  <diagram id="kgpKYQtTHZ0yAKxKKP6v" name="Page-1">
    <mxGraphModel dx="1209" dy="706" grid="1" gridSize="10" guides="1" tooltips="1" connect="1" arrows="1" fold="1" page="1" pageScale="1" pageWidth="850" pageHeight="1100" math="0" shadow="0">
      <root>
        <mxCell id="0" />
        <mxCell id="1" parent="0" />
        <mxCell id="3nuBFxr9cyL0pnOWT2aG-1" value="Siklus Pendapatan Cafe AlongÂ " style="shape=table;childLayout=tableLayout;startSize=40;collapsible=0;recursiveResize=0;expand=0;fillColor=none;fontStyle=1" parent="1" vertex="1">
          <mxGeometry x="20" y="20" width="810" height="1389" as="geometry" />
        </mxCell>
        <mxCell id="3nuBFxr9cyL0pnOWT2aG-3" value="Bagian Gudang" style="shape=tableRow;horizontal=0;swimlaneHead=0;swimlaneBody=0;top=0;left=0;bottom=0;right=0;fillColor=none;points=[[0,0.5],[1,0.5]];portConstraint=eastwest;startSize=40;collapsible=0;recursiveResize=0;expand=0;fontStyle=1;" parent="3nuBFxr9cyL0pnOWT2aG-1" vertex="1">
          <mxGeometry y="40" width="810" height="360" as="geometry" />
        </mxCell>
        <mxCell id="3nuBFxr9cyL0pnOWT2aG-4" value="Menyediakan Persediaan" style="swimlane;swimlaneHead=0;swimlaneBody=0;connectable=0;fillColor=none;startSize=40;collapsible=0;recursiveResize=0;expand=0;fontStyle=1;" parent="3nuBFxr9cyL0pnOWT2aG-3" vertex="1">
          <mxGeometry x="40" width="150" height="360" as="geometry">
            <mxRectangle width="150" height="360" as="alternateBounds" />
          </mxGeometry>
        </mxCell>
        <mxCell id="RwGH0m9OhBDumRitNJFQ-33" style="edgeStyle=orthogonalEdgeStyle;rounded=0;orthogonalLoop=1;jettySize=auto;html=1;exitX=0.5;exitY=1;exitDx=0;exitDy=0;exitPerimeter=0;entryX=0.5;entryY=0;entryDx=0;entryDy=0;" edge="1" parent="3nuBFxr9cyL0pnOWT2aG-4" source="RwGH0m9OhBDumRitNJFQ-29" target="RwGH0m9OhBDumRitNJFQ-32">
          <mxGeometry relative="1" as="geometry" />
        </mxCell>
        <mxCell id="RwGH0m9OhBDumRitNJFQ-29" value="Mulai" style="strokeWidth=2;html=1;shape=mxgraph.flowchart.terminator;whiteSpace=wrap;" vertex="1" parent="3nuBFxr9cyL0pnOWT2aG-4">
          <mxGeometry x="40" y="60" width="60" height="30" as="geometry" />
        </mxCell>
        <mxCell id="RwGH0m9OhBDumRitNJFQ-30" value="&lt;span style=&quot;font-size: 8px;&quot;&gt;Barang&amp;nbsp;&lt;/span&gt;&lt;div&gt;&lt;span style=&quot;font-size: 8px;&quot;&gt;Masuk&lt;/span&gt;&lt;/div&gt;" style="verticalLabelPosition=middle;verticalAlign=middle;html=1;shape=trapezoid;perimeter=trapezoidPerimeter;whiteSpace=wrap;size=0.23;arcSize=10;flipV=1;labelPosition=center;align=center;" vertex="1" parent="3nuBFxr9cyL0pnOWT2aG-4">
          <mxGeometry x="40" y="220" width="60" height="40" as="geometry" />
        </mxCell>
        <mxCell id="RwGH0m9OhBDumRitNJFQ-34" style="edgeStyle=orthogonalEdgeStyle;rounded=0;orthogonalLoop=1;jettySize=auto;html=1;exitX=0.5;exitY=1;exitDx=0;exitDy=0;entryX=0.5;entryY=0;entryDx=0;entryDy=0;" edge="1" parent="3nuBFxr9cyL0pnOWT2aG-4" source="RwGH0m9OhBDumRitNJFQ-32" target="RwGH0m9OhBDumRitNJFQ-30">
          <mxGeometry relative="1" as="geometry" />
        </mxCell>
        <mxCell id="RwGH0m9OhBDumRitNJFQ-36" value="&lt;font style=&quot;font-size: 10px;&quot;&gt;Menghubungi Suplier&amp;nbsp;&lt;/font&gt;" style="edgeLabel;html=1;align=center;verticalAlign=middle;resizable=0;points=[];" vertex="1" connectable="0" parent="RwGH0m9OhBDumRitNJFQ-34">
          <mxGeometry x="-0.2593" y="-1" relative="1" as="geometry">
            <mxPoint as="offset" />
          </mxGeometry>
        </mxCell>
        <mxCell id="RwGH0m9OhBDumRitNJFQ-32" value="" style="whiteSpace=wrap;html=1;aspect=fixed;" vertex="1" parent="3nuBFxr9cyL0pnOWT2aG-4">
          <mxGeometry x="47.5" y="130" width="45" height="45" as="geometry" />
        </mxCell>
        <mxCell id="3nuBFxr9cyL0pnOWT2aG-8" value="Memproses Pesanan" style="swimlane;swimlaneHead=0;swimlaneBody=0;connectable=0;fillColor=none;startSize=40;collapsible=0;recursiveResize=0;expand=0;fontStyle=1;" parent="3nuBFxr9cyL0pnOWT2aG-3" vertex="1">
          <mxGeometry x="190" width="452" height="360" as="geometry">
            <mxRectangle width="452" height="360" as="alternateBounds" />
          </mxGeometry>
        </mxCell>
        <mxCell id="RwGH0m9OhBDumRitNJFQ-114" style="edgeStyle=orthogonalEdgeStyle;rounded=0;orthogonalLoop=1;jettySize=auto;html=1;exitX=1;exitY=0.5;exitDx=0;exitDy=0;exitPerimeter=0;entryX=0;entryY=0.5;entryDx=0;entryDy=0;" edge="1" parent="3nuBFxr9cyL0pnOWT2aG-8" source="RwGH0m9OhBDumRitNJFQ-31">
          <mxGeometry relative="1" as="geometry">
            <mxPoint x="376.9000000000001" y="245.625" as="targetPoint" />
          </mxGeometry>
        </mxCell>
        <mxCell id="RwGH0m9OhBDumRitNJFQ-115" value="Mengambil&amp;nbsp;&lt;div&gt;Persediaan&lt;/div&gt;" style="edgeLabel;html=1;align=center;verticalAlign=middle;resizable=0;points=[];" vertex="1" connectable="0" parent="RwGH0m9OhBDumRitNJFQ-114">
          <mxGeometry x="0.0358" y="2" relative="1" as="geometry">
            <mxPoint x="1" as="offset" />
          </mxGeometry>
        </mxCell>
        <mxCell id="RwGH0m9OhBDumRitNJFQ-31" value="&lt;font style=&quot;font-size: 8px;&quot;&gt;Penyimpanan persediaaan&lt;/font&gt;" style="strokeWidth=2;html=1;shape=mxgraph.flowchart.database;whiteSpace=wrap;" vertex="1" parent="3nuBFxr9cyL0pnOWT2aG-8">
          <mxGeometry x="65" y="211.25" width="60" height="57.5" as="geometry" />
        </mxCell>
        <mxCell id="RwGH0m9OhBDumRitNJFQ-133" style="edgeStyle=orthogonalEdgeStyle;rounded=0;orthogonalLoop=1;jettySize=auto;html=1;exitX=0.5;exitY=1;exitDx=0;exitDy=0;entryX=0.5;entryY=0;entryDx=0;entryDy=0;" edge="1" parent="3nuBFxr9cyL0pnOWT2aG-8" source="RwGH0m9OhBDumRitNJFQ-123" target="RwGH0m9OhBDumRitNJFQ-128">
          <mxGeometry relative="1" as="geometry" />
        </mxCell>
        <mxCell id="RwGH0m9OhBDumRitNJFQ-123" value="&lt;span style=&quot;font-size: 8px;&quot;&gt;Barang&amp;nbsp;&lt;/span&gt;&lt;div&gt;&lt;span style=&quot;font-size: 8px;&quot;&gt;Keluar&lt;/span&gt;&lt;/div&gt;" style="verticalLabelPosition=middle;verticalAlign=middle;html=1;shape=trapezoid;perimeter=trapezoidPerimeter;whiteSpace=wrap;size=0.23;arcSize=10;flipV=1;labelPosition=center;align=center;" vertex="1" parent="3nuBFxr9cyL0pnOWT2aG-8">
          <mxGeometry x="370" y="217.5" width="70" height="51.25" as="geometry" />
        </mxCell>
        <mxCell id="RwGH0m9OhBDumRitNJFQ-128" value="&lt;font style=&quot;font-size: 9px;&quot;&gt;Mencatat Persediaan&lt;/font&gt;" style="shape=parallelogram;html=1;strokeWidth=2;perimeter=parallelogramPerimeter;whiteSpace=wrap;rounded=1;arcSize=12;size=0.23;" vertex="1" parent="3nuBFxr9cyL0pnOWT2aG-8">
          <mxGeometry x="365" y="310" width="80" height="40" as="geometry" />
        </mxCell>
        <mxCell id="3nuBFxr9cyL0pnOWT2aG-11" value="Menerima Pembayaran" style="swimlane;swimlaneHead=0;swimlaneBody=0;connectable=0;fillColor=none;startSize=40;collapsible=0;recursiveResize=0;expand=0;fontStyle=1;" parent="3nuBFxr9cyL0pnOWT2aG-3" vertex="1">
          <mxGeometry x="642" width="168" height="360" as="geometry">
            <mxRectangle width="168" height="360" as="alternateBounds" />
          </mxGeometry>
        </mxCell>
        <mxCell id="RwGH0m9OhBDumRitNJFQ-35" style="edgeStyle=orthogonalEdgeStyle;rounded=0;orthogonalLoop=1;jettySize=auto;html=1;exitX=1;exitY=0.5;exitDx=0;exitDy=0;entryX=0;entryY=0.5;entryDx=0;entryDy=0;entryPerimeter=0;" edge="1" parent="3nuBFxr9cyL0pnOWT2aG-3" source="RwGH0m9OhBDumRitNJFQ-30" target="RwGH0m9OhBDumRitNJFQ-31">
          <mxGeometry relative="1" as="geometry" />
        </mxCell>
        <mxCell id="3nuBFxr9cyL0pnOWT2aG-15" value="Barista" style="shape=tableRow;horizontal=0;swimlaneHead=0;swimlaneBody=0;top=0;left=0;bottom=0;right=0;fillColor=none;points=[[0,0.5],[1,0.5]];portConstraint=eastwest;startSize=40;collapsible=0;recursiveResize=0;expand=0;fontStyle=1;" parent="3nuBFxr9cyL0pnOWT2aG-1" vertex="1">
          <mxGeometry y="400" width="810" height="170" as="geometry" />
        </mxCell>
        <mxCell id="3nuBFxr9cyL0pnOWT2aG-16" value="" style="swimlane;swimlaneHead=0;swimlaneBody=0;connectable=0;fillColor=none;startSize=0;collapsible=0;recursiveResize=0;expand=0;fontStyle=1;" parent="3nuBFxr9cyL0pnOWT2aG-15" vertex="1">
          <mxGeometry x="40" width="150" height="170" as="geometry">
            <mxRectangle width="150" height="170" as="alternateBounds" />
          </mxGeometry>
        </mxCell>
        <mxCell id="3nuBFxr9cyL0pnOWT2aG-18" value="" style="swimlane;swimlaneHead=0;swimlaneBody=0;connectable=0;fillColor=none;startSize=0;collapsible=0;recursiveResize=0;expand=0;fontStyle=1;" parent="3nuBFxr9cyL0pnOWT2aG-15" vertex="1">
          <mxGeometry x="190" width="452" height="170" as="geometry">
            <mxRectangle width="452" height="170" as="alternateBounds" />
          </mxGeometry>
        </mxCell>
        <mxCell id="RwGH0m9OhBDumRitNJFQ-98" value="&lt;font style=&quot;font-size: 10px;&quot;&gt;Proses&amp;nbsp;&lt;/font&gt;&lt;div&gt;&lt;font style=&quot;font-size: 10px;&quot;&gt;Pembuatan&lt;/font&gt;&lt;/div&gt;" style="verticalLabelPosition=middle;verticalAlign=middle;html=1;shape=trapezoid;perimeter=trapezoidPerimeter;whiteSpace=wrap;size=0.23;arcSize=10;flipV=1;labelPosition=center;align=center;" vertex="1" parent="3nuBFxr9cyL0pnOWT2aG-18">
          <mxGeometry x="360" y="90" width="90" height="60" as="geometry" />
        </mxCell>
        <mxCell id="RwGH0m9OhBDumRitNJFQ-102" value="&lt;font style=&quot;font-size: 10px;&quot;&gt;Notifikasi Masuk&lt;/font&gt;" style="rounded=0;whiteSpace=wrap;html=1;" vertex="1" parent="3nuBFxr9cyL0pnOWT2aG-18">
          <mxGeometry x="47.5" y="40" width="95" height="50" as="geometry" />
        </mxCell>
        <mxCell id="RwGH0m9OhBDumRitNJFQ-93" value="" style="edgeStyle=elbowEdgeStyle;elbow=vertical;endArrow=classic;html=1;curved=0;rounded=0;endSize=8;startSize=8;" edge="1" parent="3nuBFxr9cyL0pnOWT2aG-18">
          <mxGeometry width="50" height="50" relative="1" as="geometry">
            <mxPoint x="190" y="210" as="sourcePoint" />
            <mxPoint x="90" y="90" as="targetPoint" />
          </mxGeometry>
        </mxCell>
        <mxCell id="3nuBFxr9cyL0pnOWT2aG-23" value="" style="swimlane;swimlaneHead=0;swimlaneBody=0;connectable=0;fillColor=none;startSize=0;collapsible=0;recursiveResize=0;expand=0;fontStyle=1;" parent="3nuBFxr9cyL0pnOWT2aG-15" vertex="1">
          <mxGeometry x="642" width="168" height="170" as="geometry">
            <mxRectangle width="168" height="170" as="alternateBounds" />
          </mxGeometry>
        </mxCell>
        <mxCell id="RwGH0m9OhBDumRitNJFQ-41" value="KasirÂ " style="shape=tableRow;horizontal=0;swimlaneHead=0;swimlaneBody=0;top=0;left=0;bottom=0;right=0;fillColor=none;points=[[0,0.5],[1,0.5]];portConstraint=eastwest;startSize=40;collapsible=0;recursiveResize=0;expand=0;fontStyle=1;" vertex="1" parent="3nuBFxr9cyL0pnOWT2aG-1">
          <mxGeometry y="570" width="810" height="312" as="geometry" />
        </mxCell>
        <mxCell id="RwGH0m9OhBDumRitNJFQ-42" style="swimlane;swimlaneHead=0;swimlaneBody=0;connectable=0;fillColor=none;startSize=0;collapsible=0;recursiveResize=0;expand=0;fontStyle=1;" vertex="1" parent="RwGH0m9OhBDumRitNJFQ-41">
          <mxGeometry x="40" width="150" height="312" as="geometry">
            <mxRectangle width="150" height="312" as="alternateBounds" />
          </mxGeometry>
        </mxCell>
        <mxCell id="RwGH0m9OhBDumRitNJFQ-45" value="" style="strokeWidth=2;html=1;shape=mxgraph.flowchart.display;whiteSpace=wrap;" vertex="1" parent="RwGH0m9OhBDumRitNJFQ-42">
          <mxGeometry x="40" y="20" width="60" height="40" as="geometry" />
        </mxCell>
        <mxCell id="RwGH0m9OhBDumRitNJFQ-46" value="" style="html=1;strokeWidth=2;shape=manualInput;whiteSpace=wrap;rounded=1;size=40;arcSize=11;" vertex="1" parent="RwGH0m9OhBDumRitNJFQ-42">
          <mxGeometry x="40" y="100" width="60" height="50" as="geometry" />
        </mxCell>
        <mxCell id="RwGH0m9OhBDumRitNJFQ-47" value="" style="strokeWidth=2;html=1;shape=mxgraph.flowchart.annotation_1;align=left;pointerEvents=1;rotation=-180;" vertex="1" parent="RwGH0m9OhBDumRitNJFQ-42">
          <mxGeometry x="100" y="40" width="20" height="90" as="geometry" />
        </mxCell>
        <mxCell id="RwGH0m9OhBDumRitNJFQ-43" style="swimlane;swimlaneHead=0;swimlaneBody=0;connectable=0;fillColor=none;startSize=0;collapsible=0;recursiveResize=0;expand=0;fontStyle=1;" vertex="1" parent="RwGH0m9OhBDumRitNJFQ-41">
          <mxGeometry x="190" width="452" height="312" as="geometry">
            <mxRectangle width="452" height="312" as="alternateBounds" />
          </mxGeometry>
        </mxCell>
        <mxCell id="RwGH0m9OhBDumRitNJFQ-55" style="edgeStyle=orthogonalEdgeStyle;rounded=0;orthogonalLoop=1;jettySize=auto;html=1;" edge="1" parent="RwGH0m9OhBDumRitNJFQ-43">
          <mxGeometry relative="1" as="geometry">
            <mxPoint x="115" y="130" as="sourcePoint" />
            <mxPoint x="115" y="72" as="targetPoint" />
          </mxGeometry>
        </mxCell>
        <mxCell id="RwGH0m9OhBDumRitNJFQ-56" value="Pesanan Masuk&amp;nbsp;" style="edgeLabel;html=1;align=center;verticalAlign=middle;resizable=0;points=[];" vertex="1" connectable="0" parent="RwGH0m9OhBDumRitNJFQ-55">
          <mxGeometry x="-0.2444" y="3" relative="1" as="geometry">
            <mxPoint as="offset" />
          </mxGeometry>
        </mxCell>
        <mxCell id="RwGH0m9OhBDumRitNJFQ-79" value="&lt;font style=&quot;font-size: 10px;&quot;&gt;Menggunakan HT&lt;/font&gt;" style="rounded=1;whiteSpace=wrap;html=1;" vertex="1" parent="RwGH0m9OhBDumRitNJFQ-43">
          <mxGeometry x="70" y="22" width="90" height="48" as="geometry" />
        </mxCell>
        <mxCell id="RwGH0m9OhBDumRitNJFQ-83" value="&lt;font style=&quot;font-size: 9px;&quot;&gt;Menggunakan Wa&lt;/font&gt;" style="rounded=0;whiteSpace=wrap;html=1;" vertex="1" parent="RwGH0m9OhBDumRitNJFQ-43">
          <mxGeometry x="230" y="11" width="60" height="70" as="geometry" />
        </mxCell>
        <mxCell id="RwGH0m9OhBDumRitNJFQ-91" value="" style="endArrow=none;html=1;rounded=0;exitX=1;exitY=0.5;exitDx=0;exitDy=0;entryX=0;entryY=0.5;entryDx=0;entryDy=0;" edge="1" parent="RwGH0m9OhBDumRitNJFQ-43" source="RwGH0m9OhBDumRitNJFQ-79" target="RwGH0m9OhBDumRitNJFQ-83">
          <mxGeometry width="50" height="50" relative="1" as="geometry">
            <mxPoint x="190" y="2" as="sourcePoint" />
            <mxPoint x="240" y="-48" as="targetPoint" />
            <Array as="points">
              <mxPoint x="190" y="46" />
            </Array>
          </mxGeometry>
        </mxCell>
        <mxCell id="RwGH0m9OhBDumRitNJFQ-92" value="Atau" style="edgeLabel;html=1;align=center;verticalAlign=middle;resizable=0;points=[];" vertex="1" connectable="0" parent="RwGH0m9OhBDumRitNJFQ-91">
          <mxGeometry x="-0.084" y="1" relative="1" as="geometry">
            <mxPoint as="offset" />
          </mxGeometry>
        </mxCell>
        <mxCell id="RwGH0m9OhBDumRitNJFQ-94" value="&lt;font style=&quot;font-size: 9px;&quot;&gt;Apk Kasir Majoo&lt;/font&gt;" style="strokeWidth=2;html=1;shape=mxgraph.flowchart.display;whiteSpace=wrap;" vertex="1" parent="RwGH0m9OhBDumRitNJFQ-43">
          <mxGeometry x="75" y="132" width="80" height="48" as="geometry" />
        </mxCell>
        <mxCell id="RwGH0m9OhBDumRitNJFQ-95" value="&lt;font size=&quot;1&quot;&gt;Nota Pembayaran&lt;/font&gt;" style="strokeWidth=2;html=1;shape=mxgraph.flowchart.document2;whiteSpace=wrap;size=0.25;" vertex="1" parent="RwGH0m9OhBDumRitNJFQ-43">
          <mxGeometry x="220" y="132" width="80" height="48" as="geometry" />
        </mxCell>
        <mxCell id="RwGH0m9OhBDumRitNJFQ-96" style="edgeStyle=orthogonalEdgeStyle;rounded=0;orthogonalLoop=1;jettySize=auto;html=1;exitX=1;exitY=0.5;exitDx=0;exitDy=0;exitPerimeter=0;entryX=0;entryY=0.5;entryDx=0;entryDy=0;entryPerimeter=0;" edge="1" parent="RwGH0m9OhBDumRitNJFQ-43" source="RwGH0m9OhBDumRitNJFQ-94" target="RwGH0m9OhBDumRitNJFQ-95">
          <mxGeometry relative="1" as="geometry" />
        </mxCell>
        <mxCell id="RwGH0m9OhBDumRitNJFQ-148" value="" style="edgeStyle=orthogonalEdgeStyle;rounded=0;orthogonalLoop=1;jettySize=auto;html=1;" edge="1" parent="RwGH0m9OhBDumRitNJFQ-43" source="RwGH0m9OhBDumRitNJFQ-99" target="RwGH0m9OhBDumRitNJFQ-147">
          <mxGeometry relative="1" as="geometry" />
        </mxCell>
        <mxCell id="RwGH0m9OhBDumRitNJFQ-99" value="&lt;font style=&quot;font-size: 8px;&quot;&gt;Data Penjualan&lt;/font&gt;" style="strokeWidth=2;html=1;shape=mxgraph.flowchart.database;whiteSpace=wrap;" vertex="1" parent="RwGH0m9OhBDumRitNJFQ-43">
          <mxGeometry x="85" y="232" width="60" height="60" as="geometry" />
        </mxCell>
        <mxCell id="RwGH0m9OhBDumRitNJFQ-101" style="edgeStyle=orthogonalEdgeStyle;rounded=0;orthogonalLoop=1;jettySize=auto;html=1;exitX=0.5;exitY=1;exitDx=0;exitDy=0;exitPerimeter=0;entryX=0.5;entryY=0;entryDx=0;entryDy=0;entryPerimeter=0;" edge="1" parent="RwGH0m9OhBDumRitNJFQ-43" source="RwGH0m9OhBDumRitNJFQ-94" target="RwGH0m9OhBDumRitNJFQ-99">
          <mxGeometry relative="1" as="geometry" />
        </mxCell>
        <mxCell id="RwGH0m9OhBDumRitNJFQ-147" value="&lt;font style=&quot;font-size: 15px; background-color: rgb(26, 26, 26);&quot; color=&quot;#ffffff&quot;&gt;3&lt;/font&gt;" style="strokeWidth=2;html=1;shape=mxgraph.flowchart.start_2;whiteSpace=wrap;fillColor=#1A1A1A;" vertex="1" parent="RwGH0m9OhBDumRitNJFQ-43">
          <mxGeometry x="210" y="232" width="60" height="60" as="geometry" />
        </mxCell>
        <mxCell id="RwGH0m9OhBDumRitNJFQ-44" style="swimlane;swimlaneHead=0;swimlaneBody=0;connectable=0;fillColor=none;startSize=0;collapsible=0;recursiveResize=0;expand=0;fontStyle=1;" vertex="1" parent="RwGH0m9OhBDumRitNJFQ-41">
          <mxGeometry x="642" width="168" height="312" as="geometry">
            <mxRectangle width="168" height="312" as="alternateBounds" />
          </mxGeometry>
        </mxCell>
        <mxCell id="RwGH0m9OhBDumRitNJFQ-62" style="edgeStyle=orthogonalEdgeStyle;rounded=0;orthogonalLoop=1;jettySize=auto;html=1;exitX=0;exitY=0.5;exitDx=0;exitDy=0;exitPerimeter=0;entryX=0;entryY=0.5;entryDx=0;entryDy=0;" edge="1" parent="RwGH0m9OhBDumRitNJFQ-41" source="RwGH0m9OhBDumRitNJFQ-47">
          <mxGeometry relative="1" as="geometry">
            <mxPoint x="265" y="155" as="targetPoint" />
            <Array as="points">
              <mxPoint x="200" y="85" />
              <mxPoint x="200" y="155" />
            </Array>
          </mxGeometry>
        </mxCell>
        <mxCell id="RwGH0m9OhBDumRitNJFQ-48" value="Supervisor" style="shape=tableRow;horizontal=0;swimlaneHead=0;swimlaneBody=0;top=0;left=0;bottom=0;right=0;fillColor=none;points=[[0,0.5],[1,0.5]];portConstraint=eastwest;startSize=40;collapsible=0;recursiveResize=0;expand=0;fontStyle=1;" vertex="1" parent="3nuBFxr9cyL0pnOWT2aG-1">
          <mxGeometry y="882" width="810" height="178" as="geometry" />
        </mxCell>
        <mxCell id="RwGH0m9OhBDumRitNJFQ-49" style="swimlane;swimlaneHead=0;swimlaneBody=0;connectable=0;fillColor=none;startSize=0;collapsible=0;recursiveResize=0;expand=0;fontStyle=1;" vertex="1" parent="RwGH0m9OhBDumRitNJFQ-48">
          <mxGeometry x="40" width="150" height="178" as="geometry">
            <mxRectangle width="150" height="178" as="alternateBounds" />
          </mxGeometry>
        </mxCell>
        <mxCell id="RwGH0m9OhBDumRitNJFQ-50" style="swimlane;swimlaneHead=0;swimlaneBody=0;connectable=0;fillColor=none;startSize=0;collapsible=0;recursiveResize=0;expand=0;fontStyle=1;" vertex="1" parent="RwGH0m9OhBDumRitNJFQ-48">
          <mxGeometry x="190" width="452" height="178" as="geometry">
            <mxRectangle width="452" height="178" as="alternateBounds" />
          </mxGeometry>
        </mxCell>
        <mxCell id="RwGH0m9OhBDumRitNJFQ-51" style="swimlane;swimlaneHead=0;swimlaneBody=0;connectable=0;fillColor=none;startSize=0;collapsible=0;recursiveResize=0;expand=0;fontStyle=1;" vertex="1" parent="RwGH0m9OhBDumRitNJFQ-48">
          <mxGeometry x="642" width="168" height="178" as="geometry">
            <mxRectangle width="168" height="178" as="alternateBounds" />
          </mxGeometry>
        </mxCell>
        <mxCell id="RwGH0m9OhBDumRitNJFQ-146" value="" style="edgeStyle=orthogonalEdgeStyle;rounded=0;orthogonalLoop=1;jettySize=auto;html=1;" edge="1" parent="RwGH0m9OhBDumRitNJFQ-51" source="RwGH0m9OhBDumRitNJFQ-143" target="RwGH0m9OhBDumRitNJFQ-145">
          <mxGeometry relative="1" as="geometry" />
        </mxCell>
        <mxCell id="RwGH0m9OhBDumRitNJFQ-143" value="Analisis Penjualan" style="strokeWidth=2;html=1;shape=mxgraph.flowchart.display;whiteSpace=wrap;" vertex="1" parent="RwGH0m9OhBDumRitNJFQ-51">
          <mxGeometry x="47" y="108" width="74" height="52" as="geometry" />
        </mxCell>
        <mxCell id="RwGH0m9OhBDumRitNJFQ-145" value="&lt;font style=&quot;font-size: 15px;&quot; color=&quot;#ffffff&quot;&gt;3&lt;/font&gt;" style="strokeWidth=2;html=1;shape=mxgraph.flowchart.start_2;whiteSpace=wrap;fillColor=#000000;" vertex="1" parent="RwGH0m9OhBDumRitNJFQ-51">
          <mxGeometry x="54" y="8" width="60" height="60" as="geometry" />
        </mxCell>
        <mxCell id="RwGH0m9OhBDumRitNJFQ-139" value="Waiterss" style="shape=tableRow;horizontal=0;swimlaneHead=0;swimlaneBody=0;top=0;left=0;bottom=0;right=0;fillColor=none;points=[[0,0.5],[1,0.5]];portConstraint=eastwest;startSize=40;collapsible=0;recursiveResize=0;expand=0;fontStyle=1;" vertex="1" parent="3nuBFxr9cyL0pnOWT2aG-1">
          <mxGeometry y="1060" width="810" height="181" as="geometry" />
        </mxCell>
        <mxCell id="RwGH0m9OhBDumRitNJFQ-140" style="swimlane;swimlaneHead=0;swimlaneBody=0;connectable=0;fillColor=none;startSize=0;collapsible=0;recursiveResize=0;expand=0;fontStyle=1;" vertex="1" parent="RwGH0m9OhBDumRitNJFQ-139">
          <mxGeometry x="40" width="150" height="181" as="geometry">
            <mxRectangle width="150" height="181" as="alternateBounds" />
          </mxGeometry>
        </mxCell>
        <mxCell id="RwGH0m9OhBDumRitNJFQ-141" style="swimlane;swimlaneHead=0;swimlaneBody=0;connectable=0;fillColor=none;startSize=0;collapsible=0;recursiveResize=0;expand=0;fontStyle=1;" vertex="1" parent="RwGH0m9OhBDumRitNJFQ-139">
          <mxGeometry x="190" width="452" height="181" as="geometry">
            <mxRectangle width="452" height="181" as="alternateBounds" />
          </mxGeometry>
        </mxCell>
        <mxCell id="RwGH0m9OhBDumRitNJFQ-142" style="swimlane;swimlaneHead=0;swimlaneBody=0;connectable=0;fillColor=none;startSize=0;collapsible=0;recursiveResize=0;expand=0;fontStyle=1;" vertex="1" parent="RwGH0m9OhBDumRitNJFQ-139">
          <mxGeometry x="642" width="168" height="181" as="geometry">
            <mxRectangle width="168" height="181" as="alternateBounds" />
          </mxGeometry>
        </mxCell>
        <mxCell id="RwGH0m9OhBDumRitNJFQ-25" value="Pelanggan" style="shape=tableRow;horizontal=0;swimlaneHead=0;swimlaneBody=0;top=0;left=0;bottom=0;right=0;fillColor=none;points=[[0,0.5],[1,0.5]];portConstraint=eastwest;startSize=40;collapsible=0;recursiveResize=0;expand=0;fontStyle=1;" vertex="1" parent="3nuBFxr9cyL0pnOWT2aG-1">
          <mxGeometry y="1241" width="810" height="148" as="geometry" />
        </mxCell>
        <mxCell id="RwGH0m9OhBDumRitNJFQ-26" style="swimlane;swimlaneHead=0;swimlaneBody=0;connectable=0;fillColor=none;startSize=0;collapsible=0;recursiveResize=0;expand=0;fontStyle=1;" vertex="1" parent="RwGH0m9OhBDumRitNJFQ-25">
          <mxGeometry x="40" width="150" height="148" as="geometry">
            <mxRectangle width="150" height="148" as="alternateBounds" />
          </mxGeometry>
        </mxCell>
        <mxCell id="RwGH0m9OhBDumRitNJFQ-27" style="swimlane;swimlaneHead=0;swimlaneBody=0;connectable=0;fillColor=none;startSize=0;collapsible=0;recursiveResize=0;expand=0;fontStyle=1;" vertex="1" parent="RwGH0m9OhBDumRitNJFQ-25">
          <mxGeometry x="190" width="452" height="148" as="geometry">
            <mxRectangle width="452" height="148" as="alternateBounds" />
          </mxGeometry>
        </mxCell>
        <mxCell id="RwGH0m9OhBDumRitNJFQ-65" value="Mulai" style="strokeWidth=2;html=1;shape=mxgraph.flowchart.terminator;whiteSpace=wrap;" vertex="1" parent="RwGH0m9OhBDumRitNJFQ-27">
          <mxGeometry x="280" y="49.25" width="90" height="49.5" as="geometry" />
        </mxCell>
        <mxCell id="RwGH0m9OhBDumRitNJFQ-28" style="swimlane;swimlaneHead=0;swimlaneBody=0;connectable=0;fillColor=none;startSize=0;collapsible=0;recursiveResize=0;expand=0;fontStyle=1;" vertex="1" parent="RwGH0m9OhBDumRitNJFQ-25">
          <mxGeometry x="642" width="168" height="148" as="geometry">
            <mxRectangle width="168" height="148" as="alternateBounds" />
          </mxGeometry>
        </mxCell>
        <mxCell id="RwGH0m9OhBDumRitNJFQ-103" style="edgeStyle=orthogonalEdgeStyle;rounded=0;orthogonalLoop=1;jettySize=auto;html=1;exitX=0.5;exitY=0;exitDx=0;exitDy=0;entryX=0.5;entryY=1;entryDx=0;entryDy=0;entryPerimeter=0;" edge="1" parent="3nuBFxr9cyL0pnOWT2aG-1" source="RwGH0m9OhBDumRitNJFQ-102" target="RwGH0m9OhBDumRitNJFQ-31">
          <mxGeometry relative="1" as="geometry" />
        </mxCell>
        <mxCell id="RwGH0m9OhBDumRitNJFQ-106" value="Konfirmasi Pihak Gudang" style="edgeLabel;html=1;align=center;verticalAlign=middle;resizable=0;points=[];" vertex="1" connectable="0" parent="RwGH0m9OhBDumRitNJFQ-103">
          <mxGeometry x="-0.5972" y="4" relative="1" as="geometry">
            <mxPoint as="offset" />
          </mxGeometry>
        </mxCell>
        <mxCell id="RwGH0m9OhBDumRitNJFQ-134" value="" style="edgeStyle=orthogonalEdgeStyle;rounded=0;orthogonalLoop=1;jettySize=auto;html=1;" edge="1" parent="3nuBFxr9cyL0pnOWT2aG-1" source="RwGH0m9OhBDumRitNJFQ-128" target="RwGH0m9OhBDumRitNJFQ-98">
          <mxGeometry relative="1" as="geometry" />
        </mxCell>
      </root>
    </mxGraphModel>
  </diagram>
</mxfile>
